<?xml version="1.0" encoding="utf-8"?>
<!-- Generator: Adobe Illustrator 27.0.0, SVG Export Plug-In . SVG Version: 6.00 Build 0)  -->
<svg version="1.1" id="Layer_1" xmlns="http://www.w3.org/2000/svg" xmlns:xlink="http://www.w3.org/1999/xlink" x="0px" y="0px"
	 viewBox="0 0 3600 1200" style="enable-background:new 0 0 3600 1200;" xml:space="preserve">
<style type="text/css">
	.st0{fill:#FAE2AE;}
	.st1{fill-rule:evenodd;clip-rule:evenodd;fill:#0B4937;}
	.st2{fill:#0B4937;}
</style>
<path id="band" class="st0" d="M3568,1090c0,44-36,80-80,80H113c-44,0-80-36-80-80V111c0-44,36-80,80-80h3375c44,0,80,36,80,80V1090
	z"/>
<g>
	<path class="st1" d="M1029.7,291.2c73.7-97.8,93-14.9,153.2-1.3c7.3,1.6,12.6,1.8,12.4,5.4c-2.7,36.5-13.3,44.1-25.6,45.3
		c-13.6,1.4-24.7,1.8-32.6,6.6c-10.1,6-17.1,13.4-22.1,21.7l-86.9-39.8C1030,318.4,1030.6,305.8,1029.7,291.2z M1107.5,386.9
		c-14.4,51.9,14.7,125.7-63.2,159c-1.8,43.5,1.4,86.7,10,129.5l9.6-1.8c17.3-3.2,18.4,13.7,10.8,25.2l-51.6,3.6
		c-7.3-51.5-20.6-107.5-20.1-157.2c-26.6,9.7-43.2,8.7-73.5-1.3c-14.7-4.8-76.4-38.4-91.4-22c-8.4,9.3,18,42.2-37.2,107.8l5.2,60.7
		l10.1-0.7c15.2-1.1,15.5,15.3,10.7,26.3l-29.4,2c-19.5,1.3-15.3,3.3-17-18.6l-3.7-47.2l-5.2-29.1c-1.2-17.4,9.3-36.8-4.8-77.6
		c-9.3-27-10.2-48.9-29.8-50.6c-15.3,39.9-30.1,76.6-42.4,118.2c-0.8,2.8-2.1,5.5-3.1,8.3c-14.3,43.5-23.7,12.2-15.8-13.6l5.3-17.2
		c5.8-36.1,24.5-104.2,44.8-130.4c76.4-98.9,250.3-22.3,294.2-106.4L1107.5,386.9z"/>
	<path class="st2" d="M1423,664.6c-8.5,13.4-70.1,12.6-89.8,13.7c-23.9-1.2-44.3,2.1-46.6-13.7c0,0,0-303.2,0-303.2
		c0-15.1,47.1-22.6,141.4-22.6c84.6,3.3,121.4-2.9,158.1,47.1c23.4,39.1,20.3,136-6.9,166c-34.6,46.6-100.3,41-156.1,41V664.6z
		 M1423.5,514.7c7.4-0.1,20.9,0.6,26.5-2.4c12.1-9.6,13.2-27.4,13.7-46.7c-0.4-19.4-2.5-36.7-14.2-45.3c-5.6-3.6-19.4-2-26-2.4
		V514.7z M1770.2,571.7c-0.6,58.6,81.8,16.2,106.5,7.5c13.3-1.5,42,56.3,39.8,66.5c-4.7,33.7-87,35.7-116.4,37.2
		c-52.4-0.8-97.4-6.1-132.1-41.5c-25.3-25.9-31.3-58.1-31.9-92.9c-3.7-112.4,70.6-150.4,165.5-148c82.8,0,124.2,27.7,124.2,83
		C1930.1,547.7,1858.8,576.3,1770.2,571.7z M1769.2,502.9V534c19.7,0.3,32.6-18.4,32.4-37.2C1802.8,454.8,1765.9,461.3,1769.2,502.9
		z M1964.9,735.3c0,0,0-299.9,0-299.9c7.3-22.2,61.4-30.6,86.9-30.6c13.7,0.1,26.4,2,33.4,9.9c1.3,2.2,3.8,11.6,7.4,28.3h3.9
		c23.5-49.6,112.7-58.5,145.3-13.2c27.8,42,20.3,118.2,12.3,167.4c-9.5,49.9-39.5,86.2-96.2,84.9c-16.9,0.3-35.1-4.4-45.7-15.1
		c-9.8-10.6-14.2-17.1-14.7-27.3h-3.9c0,0,6.9,42.4,6.9,42.4v53.3c0,3.5-9.5,6.1-28.5,8C2053.8,744.7,1966.3,754.5,1964.9,735.3z
		 M2127.9,540.2c-1.3-29.4,1.7-68.1-17.7-72.1c-5.9,0-10.1,3.1-12.8,9.4V601c0,8.2,4.4,12.3,13.3,12.3
		C2122.2,613.2,2127.9,588.9,2127.9,540.2z M2300.3,735.3c0,0,0-299.9,0-299.9c7.3-22.2,61.4-30.6,86.9-30.6
		c13.7,0.1,26.4,2,33.4,9.9c1.3,2.2,3.8,11.6,7.4,28.3h3.9c23.5-49.6,112.7-58.5,145.3-13.2c27.8,42,20.3,118.2,12.3,167.4
		c-9.5,49.9-39.5,86.2-96.2,84.9c-16.9,0.3-35.1-4.4-45.7-15.1c-9.8-10.6-14.2-17.1-14.7-27.3h-3.9l6.9,42.4v53.3
		c0,3.5-9.5,6.1-28.5,8C2389.1,744.7,2301.7,754.5,2300.3,735.3z M2463.3,540.2c-1.3-29.4,1.7-68.1-17.7-72.1
		c-5.9,0-10.1,3.1-12.8,9.4V601c0,8.2,4.4,12.3,13.3,12.3C2457.5,613.2,2463.3,588.9,2463.3,540.2z M2728.9,682.5
		c-42.4-1.4-71.2-9.6-88.4-45.3c-9.8-21.6-11-56.8,3.4-77.3c33.6-46.5,95.8-47.7,150.2-48.1c-0.3-49.7-62.8-27.3-88.9-11.8
		c-20.9,11.6-21.8,6.2-39.3-16c-10.1-15.1-15.2-28.8-15.2-41c0-4.1,6.1-9.4,18.2-16c57.6-29,148.5-36.7,207.2-9.4
		c17.1,7.5,31.9,25.7,39.8,40.1c10,19.9,10.8,41.3,11.3,67.4c0,0,0,141.9,0,141.9c0,3.5-8.8,6.3-26.5,8.5
		c-24.9,1.8-75.9,7.2-94.3-1.9c-3.2-2.7-5.3-29.2-6.4-33.5h-3.9C2788,668.4,2765.6,682.5,2728.9,682.5z M2794.7,604.3v-55.2
		c-34.3-1.7-36.6,64.3-13.8,65.1C2787.9,614.5,2794.4,610.5,2794.7,604.3z"/>
	<path class="st2" d="M1160.6,839.3h24.5l29.3,50.8h1.3l29.3-50.8h24.5l-43.7,72v42.8h-21.6v-42.8L1160.6,839.3z M1300.4,955.8
		c-36.3,1.7-52.6-38.6-37.8-67.7c13.8-28.4,61.8-28.4,75.6,0C1353.2,917.1,1336.6,957.5,1300.4,955.8z M1300.4,939.5
		c29.2,0.5,29.1-56.7,0-56.2C1271.2,882.9,1271.2,939.9,1300.4,939.5z M1412.4,918v-50h21.2v86.1h-20.5v-15.3h-1
		c-8.2,21.1-43.2,22.2-53.2,1.7c-7-10.8-2.6-59.7-3.8-72.5h21.2c1.6,10.1-4.3,57.7,4.7,64.7C1392,943.8,1413.8,934.5,1412.4,918z
		 M1449.3,954.1V868h20.5v14.5h1c3.7-13,17.6-17.5,29.8-15.1V886c-12.8-3.9-30.6,1.8-30.1,17.6c0,0,0,50.5,0,50.5H1449.3z
		 M1544.1,954.1V839.3c24,1.8,69.2-8.1,82.4,18.5c9.8,17.5,4.8,43.6-14.4,52.7c-11.7,7.2-39.2,4.3-53.1,4.9v-17.1
		c13.4-1.3,40.6,5,47.7-10c4.8-9.5,3-24.1-7.6-28.9c-6.7-4.1-25.1-2.2-33.2-2.6v97.4H1544.1z M1681.6,955.8
		c-46.1,2.7-59.1-60.9-23.7-83.3c34.2-16.9,67.5,4.5,63.6,44.1h-73.7V903h63.1l-9.9,4c2.2-24.3-28.3-34.1-39.7-12.9
		c-3.9,8.5-3.6,26.3,0.3,34.5c6.8,14.6,32.9,16,39,0.2l19.8,2.2C1716.2,948.3,1699,956.1,1681.6,955.8z M1733,954.1V868h20.5v14.5h1
		c3.7-13,17.6-17.5,29.8-15.1V886c-12.8-3.9-30.6,1.8-30.1,17.6c0,0,0,50.5,0,50.5H1733z M1842.7,868v15.7h-53V868H1842.7z
		 M1802.9,954.1c1.5-10.6-3.8-101.8,3.8-108.7c8.1-13.1,27.6-13.2,40.5-9.1l-4.3,15.7c-8-2.9-19.7-1.5-18.8,9.3c0,0,0,92.8,0,92.8
		H1802.9z M1889.8,955.8c-46.1,2.7-59.1-60.9-23.7-83.3c34.2-16.9,67.5,4.5,63.6,44.1H1856V903h63.1l-9.9,4
		c2.2-31.8-42.6-32.5-42.1-1.4c0,7-0.5,17.2,2.8,23c6.8,14.6,32.9,16,39,0.2l19.8,2.2C1924.4,948.3,1907.1,956.1,1889.8,955.8z
		 M1980.4,955.8c-45.1,2.7-58.5-61.9-22.9-83.2c21.7-13,60.1-3.9,61.4,25.3h-20.3c-7.7-26.7-42.1-14.8-39.8,13.3
		c-2.2,29.4,32.4,39.9,39.8,13.6h20.3C2017.6,944.5,1999.8,956.4,1980.4,955.8z M2075.1,868v15.7h-51.6V868H2075.1z M2036.2,847.5
		h21.2v80.7c-0.7,9.7,8.2,11.2,15.8,9.2l3.6,15.9c-17.6,5.7-41.4-0.1-40.6-21.7C2036.2,931.5,2036.2,847.5,2036.2,847.5z
		 M2122.4,954.1V839.3c24,1.8,69.2-8.1,82.4,18.5c9.8,17.5,4.8,43.6-14.4,52.7c-11.7,7.2-39.2,4.3-53.1,4.9v-17.1
		c13.4-1.3,40.6,5,47.7-10c4.8-9.5,3-24.1-7.6-28.9c-6.7-4.1-25.1-2.2-33.2-2.6v97.4H2122.4z M2260,955.8
		c-46.1,2.7-59.1-60.9-23.7-83.3c34.2-16.9,67.5,4.5,63.6,44.1h-73.7V903h63.1l-9.9,4c2.2-31.8-42.6-32.5-42.1-1.4
		c0,7-0.5,17.2,2.8,23c6.8,14.6,32.9,16,39,0.2l19.8,2.2C2294.5,948.3,2277.3,956.1,2260,955.8z M2356.1,868v15.7h-51.6V868H2356.1z
		 M2317.2,847.5h21.2v80.7c-0.7,9.7,8.2,11.2,15.8,9.2l3.6,15.9c-17.6,5.7-41.4-0.1-40.6-21.7
		C2317.2,931.5,2317.2,847.5,2317.2,847.5z M2437.5,890.9l-19.2,1.9c-2.5-17-42.7-12.5-29.2,5.3c3.9,3.6,19.4,5.5,25.2,6.9
		c30.3,3.7,34.1,36.6,6.7,47.3c-20.6,7.8-54.6,3.7-58.4-21.7l20.7-1.8c2.2,15.1,32.4,16.2,34.6,1.5c1-9.7-20-11.1-27.4-12.9
		c-20.4-2.6-32.9-21.1-20.8-38.1C2386.3,859.7,2432.5,862.3,2437.5,890.9z"/>
</g>
</svg>
