<svg xmlns="http://www.w3.org/2000/svg" xml:space="preserve" style="enable-background:new 0 0 3600 1200" viewBox="0 0 3600 1200"><style>.st1{fill:#0b4937}</style><path id="band" d="M3568 1090c0 44-36 80-80 80H113c-44 0-80-36-80-80V111c0-44 36-80 80-80h3375c44 0 80 36 80 80v979z" style="fill:#fae2ae"/><path d="M1344.1 838.3c11.9 0 21.7 4 29.6 12 8.1 7.9 12 17.8 12 29.6s-3.9 21.5-12 29.6c-7.9 7.9-17.7 12-29.6 12h-25.6v43.3h-20.6V838.4l46.2-.1zm0 63.6c12.2 0 20.9-9.2 20.9-22.1 0-12.8-8.8-22.1-20.9-22.1h-25.6v44l25.6.2zM1416.7 928.6c3 12.7 14.6 19.6 30.3 19.6 10.8 0 18.9-3.5 24.5-10.3l16.9 8.7c-9.3 12.1-23.1 18.2-41.4 18.2-15.3 0-27.9-4.2-37.3-12.3-9.5-8.3-14.2-18.8-14.2-31.5s4.7-22.8 14-31.1c9.3-8.5 21.4-12.7 36-12.7 13.8 0 25.2 4.3 34 12.8 8.9 8.5 13.5 19 13.5 31.1 0 1.8-.2 4.3-.7 7.5H1416.7zm55.5-14.6c-2.9-13.5-13.7-20.5-27-20.5-15.1 0-25.7 7.9-28.6 20.5h55.6zM1551.4 892.2H1529v43.5c0 11.6 7.6 11.4 22.4 10.7V964c-29.8 3.6-41.9-4.5-41.9-28.2v-43.5h-16.6v-18.9h16.6v-19.6l19.5-5.8v25.4h22.4v18.8zM1599.5 913.2c13.2 2.8 30.3 8.1 29.9 26 0 8-3.3 14.3-9.6 18.8s-14.2 6.8-23.8 6.8c-16.9 0-29.4-7.3-34.9-19.5l15.9-9c2.9 8 9.2 12 18.9 12s14.6-3.2 14.6-9.3c0-5.3-7.2-8.5-16.2-10.7-12.8-3.2-30.1-8.1-29.7-25.7 0-7.7 2.9-13.9 8.9-18.5 5.9-4.7 13.6-7 22.4-7 14.2 0 25.6 6.5 31.7 17.4L1612 903c-2.9-6.3-8.4-9.5-16.1-9.5-7 0-12.4 3-12.4 8.9 0 5.5 7.1 8.3 16.1 10.9v-.1zM1746.4 856.9c-15.4-1.3-22.8 4.6-22.8 17.5v1.7h22.8v18.5h-22.8v70.1h-20.9v-70.1H1688v-18.5h14.7v-1.7c0-24.2 15.2-37.5 43.8-36v18.5zM1770.4 952.1c-9.4-8.5-14.2-18.8-14.2-31.1s4.8-22.6 14.2-31.1c9.4-8.5 21.1-12.7 34.5-12.7 13.4 0 25.1 4.2 34.5 12.7 9.4 8.5 14.2 18.8 14.2 31.1s-4.8 22.6-14.2 31.1c-9.4 8.5-20.9 12.7-34.5 12.7s-25.1-4.2-34.5-12.7zm34.5-4.8c8.1 0 14.9-2.5 20.5-7.5 5.5-5 8.3-11.3 8.3-18.8s-2.8-13.8-8.3-18.8c-5.5-5-12.3-7.5-20.5-7.5s-14.9 2.5-20.5 7.5c-5.5 5-8.3 11.3-8.3 18.8s2.8 13.8 8.3 18.8c5.5 5 12.3 7.5 20.5 7.5zM1883.5 893.2c5-10.7 14.7-16 28.7-16v20.1c-7.6-.6-14.3 1.2-20.1 5.1-5.8 3.8-8.6 10.2-8.6 19v43.4h-20.1v-86.1h20.1v14.5zM2058.4 928.7c0 10.3-3.5 18.9-10.5 25.8-7 6.9-15.5 10.3-25.6 10.3h-51.7V838.3h47.8c9.8 0 18.2 3.4 24.9 10.1 6.9 6.7 10.3 15 10.3 24.9 0 11-4.1 19.5-12.2 25.8 10.5 5.8 16.9 16.3 17 29.6zm-68-70.8v33.3h28c8.8 0 15.5-7.3 15.5-16.6s-6.7-16.6-15.5-16.6l-28-.1zm31.9 87.4c9.2 0 16.4-7.7 16.4-17.7 0-9.9-7.2-17.7-16.4-17.7h-31.9v35.4h31.9zM2099.1 928.6c3 12.7 14.6 19.6 30.3 19.6 10.8 0 18.9-3.5 24.5-10.3l16.8 8.7c-9.2 12.1-23.1 18.2-41.4 18.2-15.3 0-27.8-4.2-37.3-12.3-9.5-8.3-14.2-18.8-14.2-31.5s4.7-22.8 14-31.1c9.2-8.5 21.4-12.7 36-12.7 13.8 0 25.2 4.3 34.1 12.8 8.9 8.5 13.5 19 13.5 31.1 0 1.8-.2 4.3-.7 7.5h-75.6zm55.5-14.6c-2.9-13.5-13.7-20.5-27-20.5-15.1 0-25.7 7.9-28.6 20.5h55.7-.1zM2213.7 913.2c13.2 2.8 30.3 8.1 29.9 26 0 8-3.2 14.3-9.6 18.8-6.3 4.5-14.2 6.8-23.8 6.8-16.9 0-29.4-7.3-34.9-19.5l15.9-9c2.9 8 9.2 12 18.9 12s14.6-3.2 14.6-9.3c0-5.3-7.1-8.5-16.2-10.7-12.8-3.2-30.1-8.1-29.7-25.7 0-7.7 2.9-13.9 8.9-18.5 5.9-4.7 13.6-7 22.4-7 14.2 0 25.6 6.5 31.7 17.4l-15.6 8.5c-2.9-6.3-8.4-9.5-16.1-9.5-7 0-12.4 3-12.4 8.9 0 5.5 7.1 8.3 16.1 10.9v-.1zM2311.9 892.2h-22.3v43.5c0 11.6 7.5 11.4 22.3 10.7V964c-29.8 3.6-41.8-4.5-41.8-28.2v-43.5h-16.7v-18.9h16.7v-19.6l19.5-5.8v25.4h22.3v18.8zM1204 294.6c-2.6-25.2-12.7-30.2-32.3-30.2h-83.6c-18.4 0-22.8 3.1-29.7 23.3l-62.7 203.9L933 287.7c-7-20.2-11.4-23.3-29.7-23.3h-83.7c-19.6 0-29.7 5.1-32.3 30.2l-44.4 400.3c-1.9 14.4-.6 20.2 12.1 22l95.7 13.8c14.5 1.9 17.8-1.3 19.6-12l20.9-187.5 44.9 175.6c4.4 14.4 10.1 20.2 24.7 20.2h69.7c14.5 0 20.3-5.7 24.7-20.2l44.4-175.6 21.5 187.5c1.9 10.7 5.1 13.8 19.6 12l95.7-13.8c12.7-1.9 13.9-7.5 12.1-22L1204 294.6zM1434.4 371.4c-107.4 0-165.8 73.6-165.8 175.1s58.4 175.1 165.8 175.1 165.8-73.6 165.8-175.1-58.4-175.1-165.8-175.1zm0 235.7c-25.8 0-39.6-24.2-39.6-60.7s13.8-60.7 39.6-60.7 39.6 24.2 39.6 60.7-13.8 60.7-39.6 60.7zM1841 371.6c-22 0-186.7 4.4-197.4 19.4-4.4 5.1-4.4 12-4.4 23.8l5.1 273.5c.6 25.1 6.3 33.2 28.2 33.2h76.8c22 0 28.2-8.2 28.2-33.2V499.5c9.4-3.1 12.6-4.4 23.3-5.1 14.4-.6 21.3 3.8 25.8 15.6 3.1 12.5 3.8 31.4 3.8 57.1l-.6 121.1c0 25.1 6.9 33.2 28.9 33.2h78.6c22 0 27.7-8.2 28.2-33.2l5.1-166.9c.6-40.8-8.2-78.4-28.9-106-22-27.6-54.7-43.9-100.6-43.9l-.1.2zM2136 410.3h-79c-21.6 0-27.8 7.5-27.8 32.5v245.6c0 25 6.2 33.1 27.8 33.1h80.3c21.6 0 28.4-8.1 28.4-33.1l-1.2-245.6c-.1-24.4-6.9-32.5-28.5-32.5zM2102.3 244.9c-46.8 0-73.1 28.8-73.1 68.1s26.3 68.1 73.1 68.1 73.1-28.8 73.1-68.1-26.4-68.1-73.1-68.1zM2441.5 381.6h-48.6V297c0-25.1-6.4-32.6-28.7-32.6h-75.4c-22.4 0-29.4 8.2-29.4 32.6v84.6h-38.3c-21.1 0-26.2 3.8-26.2 23.2v68.4c0 19.4 5.1 23.2 26.2 23.2h38.3v119c0 80.2 42.8 115.9 123.3 115.9 23.7 0 47.3-1.8 69.7-6.3 9.6-1.8 12.2-4.4 12.2-13.8l-3.2-95.9c0-8.2-4.5-11.3-12.8-9.4-7 1.8-14.1 3.1-23.7 3.1-18.5 0-32-6.3-32-33.2v-79.6h48.6c21.1 0 26.2-3.8 26.2-23.2v-68.4c0-19.4-5.1-23.2-26.2-23.2v.2zM2653.1 371.4c-107.4 0-165.8 73.6-165.8 175.1s58.4 175.1 165.8 175.1 165.7-73.6 165.7-175.1-58.3-175.1-165.7-175.1zm0 235.7c-25.8 0-39.6-24.2-39.6-60.7s13.8-60.7 39.6-60.7 39.6 24.2 39.6 60.7-13.8 60.7-39.6 60.7zM2849.7 385.1c-11.3-8.1-29.7-3.4-41.4 10.5s-12 31.8-.8 39.9c11.3 8.1 29.7 3.4 41.4-10.5s12-31.8.8-39.9zM2584.6 361.5c13.3-2 21.9-18.8 19.4-37.5-2.6-18.7-15.3-32.2-28.5-30.2-13.2 2-21.9 18.8-19.4 37.5 2.5 18.6 15.2 32.2 28.5 30.2zM2756.2 378.7c18.3 9.2 46.1-8.2 61.8-39.1 15.8-30.9 13.8-63.4-4.7-72.7-18.3-9.2-46.1 8.2-61.8 39.1-15.8 30.8-13.8 63.4 4.7 72.7zM2661.3 351.8c18.5 2.3 36.4-21.8 39.9-53.9 3.6-32.2-8.5-60.1-27.1-62.5-18.5-2.3-36.4 21.8-39.9 53.9-3.5 32.2 8.6 60.1 27.1 62.5z" class="st1"/></svg>