<svg xmlns="http://www.w3.org/2000/svg" width="24" height="24" fill="none"><g clip-path="url(#a)"><path fill="#FF9E9E" d="M24 8.946c0 .407-.022.813-.066 1.217C23.4 15.21 19.53 20.52 12 22.965 4.481 20.532.6 15.24.066 10.163.022 9.759 0 9.353 0 8.946c0-4.014 2.45-7.498 6-7.498a7.906 7.906 0 0 1 3.348.737l5.95-.265A7.878 7.878 0 0 1 18 1.448c3.55 0 6 3.484 6 7.498Z"/><path fill="#FFC6C6" d="M24 8.946c0 .407-.022.813-.066 1.217-1.482 3.807-6.265 6.596-11.934 6.596S1.548 13.969.066 10.163C.022 9.759 0 9.353 0 8.946c0-4.014 2.45-7.498 6-7.498a7.906 7.906 0 0 1 3.348.737l5.95-.265A7.878 7.878 0 0 1 18 1.448c3.55 0 6 3.484 6 7.498Z"/><path fill="#35495E" d="M21.207 16.784a17.463 17.463 0 0 1-6.534 5.122c-.248.12-.5.236-.757.34-.608.264-1.25.504-1.916.72a21.488 21.488 0 0 1-.828-.286v-4.266a6.331 6.331 0 0 1-1.655-4.138 9.098 9.098 0 0 1 1.093-4.184.403.403 0 0 0-.224-.546 11.844 11.844 0 0 0-3.74-.65c-1.983-.662-2.12-2.644-2.09-3.413a.41.41 0 0 1 .31-.385l2.4-.596c.4-.101.748-.348.977-.691l.972-1.457c.04-.059.085-.115.133-.17.205-.238.475-.412.777-.5a14.566 14.566 0 0 1 3.555-.65c.646.036 1.24.361 1.618.886A6.68 6.68 0 0 1 16.576 6c0 1.06-.455 1.668-1.08 1.953v.008l.12.832.092.637a.408.408 0 0 0 .302.34 4.28 4.28 0 0 1 1.808 1.196c.765.76 2.309 3.248 3.389 5.818Z"/><path fill="#2C3E50" d="M15.617 8.793c-.328.126-.676.19-1.027.186a3.65 3.65 0 0 1-1.32-.256c-.47-.19-.78-.647-.782-1.155v-2.81a.414.414 0 1 1 .828 0v2.81c0 .17.103.322.26.385.58.25 1.233.263 1.821.037a.393.393 0 0 1 .1-.029l.12.832ZM18.6 17.719a.418.418 0 0 1-.526.26 2.504 2.504 0 0 0-2.342.278 3.276 3.276 0 0 0-1.25 2.64c-.006.346.06.69.191 1.01-.248.12-.5.235-.757.338a3.418 3.418 0 0 1-.26-1.348 4.11 4.11 0 0 1 1.592-3.31 3.346 3.346 0 0 1 3.091-.394.418.418 0 0 1 .261.526Z"/><path fill="#3F5C6C" d="M6.207 4.767V6a.414.414 0 0 1-.414.414h-1.18c-.05-.308-.069-.62-.057-.931a.41.41 0 0 1 .31-.385l1.34-.331Z"/></g><defs><clipPath id="a"><path fill="#fff" d="M0 0h24v24H0z"/></clipPath></defs></svg>