<svg xmlns="http://www.w3.org/2000/svg" xml:space="preserve" style="enable-background:new 0 0 115 40" viewBox="0 0 115 40"><path d="M32.6 32.6c.6 0 1.2.2 1.6.6.4.4.6 1 .6 1.6 0 .6-.2 1.2-.6 1.6-.4.4-1 .6-1.6.6h-1.4v2.3h-1.1v-6.8l2.5.1zm0 3.5c.7 0 1.1-.5 1.1-1.2s-.5-1.2-1.1-1.2h-1.4v2.4h1.4zM36.5 37.5c.2.7.8 1.1 1.6 1.1.6 0 1-.2 1.3-.6l.9.5c-.5.7-1.3 1-2.2 1-.8 0-1.5-.2-2-.7-.5-.5-.8-1-.8-1.7s.3-1.2.8-1.7 1.2-.7 1.9-.7 1.4.2 1.8.7c.5.5.7 1 .7 1.7v.4h-4zm3-.8c-.2-.7-.7-1.1-1.5-1.1s-1.4.4-1.5 1.1h3zM43.8 35.5h-1.2v2.4c0 .6.4.6 1.2.6v1c-1.6.2-2.3-.2-2.3-1.5v-2.4h-.9v-1h.9v-1.1l1.1-.3v1.4h1.2v.9zM46.4 36.7c.7.2 1.6.4 1.6 1.4 0 .4-.2.8-.5 1-.3.2-.8.4-1.3.4-.9 0-1.6-.4-1.9-1.1l.9-.5c.2.4.5.7 1 .7s.8-.2.8-.5-.4-.5-.9-.6c-.7-.2-1.6-.4-1.6-1.4 0-.4.2-.7.5-1 .3-.3.7-.4 1.2-.4.8 0 1.4.4 1.7.9l-.8.5c-.2-.3-.5-.5-.9-.5s-.7.2-.7.5.4.5.9.6zM54.3 33.6c-.8-.1-1.2.2-1.2.9v.1h1.2v1h-1.2v3.8H52v-3.8h-.8v-1h.8v-.1c0-1.3.8-2 2.4-1.9v1zM55.6 38.8c-.5-.5-.8-1-.8-1.7s.3-1.2.8-1.7 1.1-.7 1.9-.7c.7 0 1.4.2 1.9.7.5.5.8 1 .8 1.7s-.3 1.2-.8 1.7-1.1.7-1.9.7c-.7 0-1.4-.3-1.9-.7zm1.9-.3c.4 0 .8-.1 1.1-.4.3-.3.5-.6.5-1s-.2-.7-.5-1c-.3-.3-.7-.4-1.1-.4-.4 0-.8.1-1.1.4-.3.3-.5.6-.5 1s.2.7.5 1c.3.3.7.4 1.1.4zM61.8 35.6c.3-.6.8-.9 1.6-.9v1.1c-.4 0-.8.1-1.1.3-.3.2-.5.6-.5 1v2.3h-1.1v-4.7h1.1v.9zM71.2 37.5c0 .6-.2 1-.6 1.4-.4.4-.8.6-1.4.6h-2.8v-6.8H69c.5 0 1 .2 1.3.5.4.4.6.8.6 1.3 0 .6-.2 1.1-.7 1.4.7.3 1 .9 1 1.6zm-3.7-3.8v1.8H69c.5 0 .8-.4.8-.9s-.4-.9-.8-.9h-1.5zm1.8 4.7c.5 0 .9-.4.9-1 0-.5-.4-1-.9-1h-1.7v1.9l1.7.1zM73.4 37.5c.2.7.8 1.1 1.6 1.1.6 0 1-.2 1.3-.6l.9.5c-.5.7-1.3 1-2.2 1-.8 0-1.5-.2-2-.7-.5-.5-.8-1-.8-1.7s.3-1.2.8-1.7 1.2-.7 1.9-.7 1.4.2 1.8.7c.5.5.7 1 .7 1.7v.4h-4zm3-.8c-.2-.7-.7-1.1-1.5-1.1s-1.4.4-1.5 1.1h3zM79.6 36.7c.7.2 1.6.4 1.6 1.4 0 .4-.2.8-.5 1-.3.2-.8.4-1.3.4-.9 0-1.6-.4-1.9-1.1l.9-.5c.2.4.5.7 1 .7s.8-.2.8-.5-.4-.5-.9-.6c-.7-.2-1.6-.4-1.6-1.4 0-.4.2-.7.5-1 .3-.3.7-.4 1.2-.4.8 0 1.4.4 1.7.9l-.8.5c-.2-.3-.5-.5-.9-.5s-.7.2-.7.5c.1.3.4.5.9.6zM84.9 35.5h-1.2v2.4c0 .6.4.6 1.2.6v1c-1.6.2-2.3-.2-2.3-1.5v-2.4h-.9v-1h.9v-1.1l1.1-.3v1.4h1.2v.9zM25 3.2c-.1-1.4-.7-1.6-1.7-1.6h-4.5c-1 0-1.2.2-1.6 1.3l-3.4 11-3.4-11c-.5-1.2-.7-1.3-1.7-1.3H4.2c-1.1 0-1.6.3-1.7 1.6L0 24.9c-.1.8 0 1.1.7 1.2l5.2.7c.8.1 1-.1 1.1-.6L8.1 16l2.4 9.5c.2.8.5 1.1 1.3 1.1h3.8c.8 0 1.1-.3 1.3-1.1l2.4-9.5 1.2 10.1c.1.6.3.7 1.1.6l5.2-.7c.7-.1.8-.4.7-1.2L25 3.2zM37.5 7.4c-5.8 0-9 4-9 9.5s3.2 9.5 9 9.5 9-4 9-9.5-3.2-9.5-9-9.5zm0 12.7c-1.4 0-2.1-1.3-2.1-3.3s.7-3.3 2.1-3.3c1.4 0 2.1 1.3 2.1 3.3s-.8 3.3-2.1 3.3zM59.5 7.4c-1.2 0-10.1.2-10.7 1.1-.2.3-.2.6-.2 1.3l.3 14.8c0 1.4.3 1.8 1.5 1.8h4.2c1.2 0 1.5-.4 1.5-1.8V14.3c.5-.2.7-.2 1.3-.3.8 0 1.2.2 1.4.8.2.7.2 1.7.2 3.1v6.6c0 1.4.4 1.8 1.6 1.8h4.3c1.2 0 1.5-.4 1.5-1.8l.3-9c0-2.2-.4-4.2-1.6-5.7-1.4-1.5-3.2-2.4-5.6-2.4zM75.4 9.5h-4.3c-1.2 0-1.5.4-1.5 1.8v13.3c0 1.4.3 1.8 1.5 1.8h4.3c1.2 0 1.5-.4 1.5-1.8l.1-13.4c0-1.3-.4-1.7-1.6-1.7zM73.6.5c-2.5 0-4 1.6-4 3.7s1.4 3.7 4 3.7 4-1.6 4-3.7-1.5-3.7-4-3.7zM91.9 7.9h-2.6V3.3c0-1.4-.3-1.8-1.6-1.8h-4.1c-1.2 0-1.6.4-1.6 1.8v4.6h-2c-1.1 0-1.4.2-1.4 1.3v3.7c0 1.1.3 1.3 1.4 1.3h2.1v6.4c0 4.3 2.3 6.3 6.7 6.3 1.3 0 2.6-.1 3.8-.3.5-.1.7-.2.7-.7l-.3-5.3c0-.4-.2-.6-.7-.5-.4.1-.8.2-1.3.2-1 0-1.7-.3-1.7-1.8v-4.3H92c1.1 0 1.4-.2 1.4-1.3V9.2c0-1.1-.3-1.3-1.5-1.3zM103.4 7.4c-5.8 0-9 4-9 9.5s3.2 9.5 9 9.5 9-4 9-9.5-3.2-9.5-9-9.5zm0 12.7c-1.4 0-2.1-1.3-2.1-3.3s.7-3.3 2.1-3.3c1.4 0 2.1 1.3 2.1 3.3s-.7 3.3-2.1 3.3zM114 8.1c-.6-.4-1.6-.2-2.2.6-.6.8-.6 1.7 0 2.2.6.4 1.6.2 2.2-.6.6-.8.6-1.7 0-2.2zM99.7 6.8c.7-.1 1.2-1 1-2-.1-1-.8-1.7-1.5-1.6-.7.1-1.2 1-1 2 .1 1 .8 1.7 1.5 1.6zM109 7.8c1 .5 2.5-.4 3.3-2.1.9-1.7.7-3.4-.3-3.9s-2.5.4-3.3 2.1c-.8 1.6-.7 3.4.3 3.9zM103.8 6.3c1 .1 2-1.2 2.2-2.9.2-1.7-.5-3.3-1.5-3.4-1-.1-2 1.2-2.2 2.9-.1 1.8.5 3.3 1.5 3.4z"/></svg>