<svg xmlns="http://www.w3.org/2000/svg" xml:space="preserve" style="enable-background:new 0 0 115 40" viewBox="0 0 115 40"><path d="M18.2 4.2C22-.7 23 3.5 26 4.2c.4.1.6.1.6.3-.1 1.9-.7 2.2-1.3 2.3-.7.1-1.3.1-1.7.3-.5.3-.9.7-1.1 1.1l-4.4-2c.1-.6.2-1.2.1-2zm4 4.9c-.7 2.6.7 6.4-3.2 8.1-.1 2.2.1 4.4.5 6.6l.5-.1c.9-.2.9.7.6 1.3l-2.6.2c-.4-2.6-1.1-5.5-1-8-1.4.5-2.2.4-3.8-.1-.8-.2-3.9-2-4.7-1.1-.4.5.9 2.2-1.9 5.5l.3 3.1h.5c.8-.1.8.8.5 1.3l-1.5.1c-1 .1-.8.2-.9-.9l-.2-2.4-.3-1.5c-.1-.9.5-1.9-.2-4-.5-1.4-.5-2.5-1.5-2.6-.8 2-1.5 3.9-2.2 6 0 .1-.1.3-.2.4-.7 2.2-1.2.6-.8-.7l.3-.9c.3-1.8 1.3-5.3 2.3-6.7 3.9-5 12.8-1.1 15-5.4l4.5 1.8z" style="fill-rule:evenodd;clip-rule:evenodd"/><path d="M38.3 23.3c-.4.7-3.6.6-4.6.7-1.2-.1-2.3.1-2.4-.7V7.8c0-.8 2.4-1.2 7.2-1.2 4.3.2 6.2-.1 8.1 2.4 1.2 2 1 6.9-.4 8.5-1.8 2.4-5.1 2.1-8 2.1v3.7zm0-7.7c.4 0 1.1 0 1.4-.1.6-.5.7-1.4.7-2.4s-.1-1.9-.7-2.3c-.3-.2-1-.1-1.3-.1v4.9zm17.7 3c0 3 4.2.8 5.4.4.7-.1 2.1 2.9 2 3.4-.2 1.7-4.4 1.8-5.9 1.9-2.7 0-5-.3-6.7-2.1-1.3-1.3-1.6-3-1.6-4.7-.2-5.7 3.6-7.7 8.4-7.6 4.2 0 6.3 1.4 6.3 4.2.2 3.2-3.4 4.7-7.9 4.5zm-.1-3.6v1.6c1 0 1.7-.9 1.7-1.9 0-2.1-1.8-1.8-1.7.3zm10 11.9V11.6c.4-1.1 3.1-1.6 4.4-1.6.7 0 1.3.1 1.7.5.1.1.2.6.4 1.4h.2c1.2-2.5 5.7-3 7.4-.7 1.4 2.1 1 6 .6 8.5-.5 2.5-2 4.4-4.9 4.3-.9 0-1.8-.2-2.3-.8-.5-.5-.7-.9-.8-1.4h-.2l.4 2.2v2.7c0 .2-.5.3-1.5.4-.9.3-5.3.8-5.4-.2zm8.3-10c-.1-1.5.1-3.5-.9-3.7-.3 0-.5.2-.7.5V20c0 .4.2.6.7.6.6.1.9-1.2.9-3.7zm8.8 10V11.6c.4-1.1 3.1-1.6 4.4-1.6.7 0 1.3.1 1.7.5.1.1.2.6.4 1.4h.2c1.2-2.5 5.7-3 7.4-.7 1.4 2.1 1 6 .6 8.5-.5 2.5-2 4.4-4.9 4.3-.9 0-1.8-.2-2.3-.8-.5-.5-.7-.9-.8-1.4h-.2l.4 2.2v2.7c0 .2-.5.3-1.5.4-.8.3-5.3.8-5.4-.2zm8.3-10c-.1-1.5.1-3.5-.9-3.7-.3 0-.5.2-.7.5V20c0 .4.2.6.7.6.6.1.9-1.2.9-3.7zm13.6 7.3c-2.2-.1-3.6-.5-4.5-2.3-.5-1.1-.6-2.9.2-3.9 1.7-2.4 4.9-2.4 7.7-2.5 0-2.5-3.2-1.4-4.5-.6-1.1.6-1.1.3-2-.8-.5-.8-.8-1.5-.8-2.1 0-.2.3-.5.9-.8 2.9-1.5 7.6-1.9 10.6-.5.9.4 1.6 1.3 2 2 .5 1 .5 2.1.6 3.4v7.2c0 .2-.4.3-1.4.4-1.3.1-3.9.4-4.8-.1-.2-.1-.3-1.5-.3-1.7h-.2c-.5 1.6-1.6 2.3-3.5 2.3zm3.3-4v-2.8c-1.7-.1-1.9 3.3-.7 3.3.4 0 .7-.2.7-.5zM24.9 32.2h1.3l1.5 2.6h.1l1.5-2.6h1.3l-2.2 3.7v2.2h-1.1v-2.2l-2.4-3.7zm7.1 5.9c-1.9.1-2.7-2-1.9-3.5.7-1.4 3.2-1.4 3.9 0 .7 1.6-.1 3.6-2 3.5zm0-.8c1.5 0 1.5-2.9 0-2.9s-1.5 2.9 0 2.9zm5.7-1.1v-2.6h1.1V38h-1v-.8c-.4 1.1-2.2 1.1-2.7.1-.4-.5-.1-3-.2-3.7H36c.1.5-.2 2.9.2 3.3.5.6 1.6.2 1.5-.7zm1.9 1.9v-4.4h1v.7c.2-.7.9-.9 1.5-.8v1c-.7-.2-1.6.1-1.5.9v2.6h-1zm4.8 0v-5.9c1.2.1 3.5-.4 4.2.9.5.9.2 2.2-.7 2.7-.6.4-2 .2-2.7.2v-.9c.7-.1 2.1.3 2.4-.5.2-.5.2-1.2-.4-1.5-.3-.2-1.3-.1-1.7-.1v5h-1.1zm7.1 0c-2.4.1-3-3.1-1.2-4.2 1.7-.9 3.4.2 3.2 2.3h-3.8v-.7H53l-.5.2c.1-1.2-1.4-1.7-2-.7-.2.4-.2 1.3 0 1.8.3.7 1.7.8 2 0l1 .1c-.3.9-1.2 1.3-2 1.2zm2.6 0v-4.4h1v.7c.2-.7.9-.9 1.5-.8v1c-.7-.2-1.6.1-1.5.9v2.6h-1zm5.6-4.4v.8H57v-.8h2.7zm-2.1 4.4c.1-.5-.2-5.2.2-5.5.4-.7 1.4-.7 2.1-.5l-.2.8c-.4-.1-1-.1-1 .5v4.7h-1.1zm4.5 0c-2.4.1-3-3.1-1.2-4.2 1.7-.9 3.4.2 3.2 2.3h-3.8v-.7h3.2l-.5.2c.1-1.6-2.2-1.7-2.2-.1 0 .4 0 .9.1 1.2.3.7 1.7.8 2 0l1 .1c-.1.9-.9 1.3-1.8 1.2zm4.6 0c-2.3.1-3-3.2-1.2-4.2 1.1-.7 3.1-.2 3.1 1.3h-1c-.4-1.4-2.1-.8-2 .7-.1 1.5 1.7 2 2 .7h1c0 1-.9 1.6-1.9 1.5zm4.8-4.4v.8h-2.6v-.8h2.6zm-2-1.1h1.1v4.1c0 .5.4.6.8.5l.2.8c-.9.3-2.1 0-2.1-1.1v-4.3zm4.4 5.5v-5.9c1.2.1 3.5-.4 4.2.9.5.9.2 2.2-.7 2.7-.6.4-2 .2-2.7.2v-.9c.7-.1 2.1.3 2.4-.5.2-.5.2-1.2-.4-1.5-.3-.2-1.3-.1-1.7-.1v5h-1.1zm7.1 0c-2.4.1-3-3.1-1.2-4.2 1.7-.9 3.4.2 3.2 2.3h-3.8v-.7h3.2l-.4.2c.1-1.6-2.2-1.7-2.1-.1 0 .4 0 .9.1 1.2.3.7 1.7.8 2 0l1 .1c-.3.9-1.2 1.3-2 1.2zm4.9-4.4v.8h-2.6v-.8h2.6zm-2-1.1H85v4.1c0 .5.4.6.8.5l.2.8c-.9.3-2.1 0-2.1-1.1v-4.3zm6.1 2.2-1 .1c-.1-.9-2.2-.6-1.5.3.2.2 1 .3 1.3.4 1.5.2 1.7 1.9.3 2.4-1.1.4-2.8.2-3-1.1l1.1-.1c.1.8 1.7.8 1.8.1.1-.5-1-.6-1.4-.7-1-.1-1.7-1.1-1.1-1.9.9-1.1 3.3-.9 3.5.5z"/></svg>