<svg xmlns="http://www.w3.org/2000/svg" width="27" height="27" fill="none"><g clip-path="url(#a)"><path fill="#F2B355" d="m11.239 6.232 2.427-.357a2.039 2.039 0 0 0 1.737-1.865L15.665.51a.475.475 0 0 0-.7-.452l-2.219 1.21a2.883 2.883 0 0 0-1.451 1.995l-.479 2.527a.375.375 0 0 0 .423.44Z"/><path fill="#F2B355" d="M14.964.059 13.91.635l-.25 3.33a2.039 2.039 0 0 1-1.736 1.865l-1.09.16a.374.374 0 0 0 .406.242l2.428-.357a2.039 2.039 0 0 0 1.736-1.865L15.665.51a.475.475 0 0 0-.7-.452Z"/><path fill="#F2B355" d="m6.867 15.955 1.598-.336c.35.04.578.387.477.723l-.43 1.425 3.992 5.584h2.653l10.034-1.965-5.686-11.407a31.26 31.26 0 0 0-2.988-4.836 5.69 5.69 0 0 0-7.874-1.588l-1.694 1.12a2.838 2.838 0 0 0-1.254 2.057L5.543 8.12a1.268 1.268 0 0 1-.87 1.067l-3.061.994-.627 2.474.182.38a3.715 3.715 0 0 0 2.925 2.08l1.062.123a.16.16 0 0 1 .114.068c.35.52.981.779 1.599.649Z"/><path fill="#F2B355" d="M19.505 9.979a31.26 31.26 0 0 0-2.988-4.836 5.691 5.691 0 0 0-6.693-2.187c1.097.4 2.08 1.141 2.777 2.187a31.268 31.268 0 0 1 2.988 4.836l6.42 12.879 3.181-1.473L19.506 9.98Z"/><path fill="#4A80AA" d="m19.674 13.383.045-.588c.067-.89-.3-1.757-.984-2.329L16.716 8.78a.338.338 0 0 0-.55.317l.47 2.744c.04.231.176.434.374.558l2.06 1.29a.396.396 0 0 0 .604-.306Z"/><path fill="#407093" d="M18.735 10.466 16.716 8.78a.338.338 0 0 0-.55.317l.146.852.787.657a2.763 2.763 0 0 1 .984 2.329l-.01.13.996.624a.396.396 0 0 0 .605-.306l.045-.588c.067-.89-.3-1.757-.984-2.329Z"/><path fill="#407093" d="M13.388 17.62c.296.297.659.518 1.058.646.055.017.1.059.12.113l.17.448a.705.705 0 0 0 .813.445l.902-.21a.4.4 0 0 1 .41.63l-.931 1.236a3.852 3.852 0 0 0-.773 2.423h11.006a.27.27 0 0 0 .258-.353 6.943 6.943 0 0 1-.258-1.09l-.492-3.238a6.971 6.971 0 0 0-1.542-3.422l-2.13-2.548a4.801 4.801 0 0 0-2.763-1.633l-.113-.022a4.8 4.8 0 0 0-3.986 1.017l-.477.396a2.395 2.395 0 0 0-.81 2.359l.158.714-.918 1.011.035.814.263.264Z"/><path fill="#707DD3" d="M7.712 10.15a.698.698 0 1 0 0-1.396.698.698 0 0 0 0 1.396Z"/><path fill="#407093" d="m.697 12.056.288.6.152-.404a.648.648 0 0 1 .629-.42l.715.025a.318.318 0 0 0 .24-.54l-1.11-1.136-.13.042a1.324 1.324 0 0 0-.784 1.832Z"/><path fill="#365E7D" d="m2.72 11.317-1.108-1.136-.13.042a1.314 1.314 0 0 0-.62.425l.926.95c.069.07.103.154.11.239l.583.02a.318.318 0 0 0 .24-.54Z"/><path fill="#F2B355" d="M4.772 12.975a.458.458 0 1 0 0-.916.458.458 0 0 0 0 .916ZM6.542 12.975a.458.458 0 1 0 0-.916.458.458 0 0 0 0 .916ZM5.798 14.246a.458.458 0 1 0 0-.916.458.458 0 0 0 0 .916Z"/><path fill="#95D6A4" d="M16.01 16.18a.649.649 0 1 0 0-1.298.649.649 0 0 0 0 1.298Z"/><path fill="#E28086" d="m13.643 16.501-.553.041-.057.063a.496.496 0 0 0-.037.621l.13.13.578-.043a.407.407 0 0 0-.06-.812Z"/><path fill="#F2B355" d="m13.25 6.652 1.05.05 1.754-.227s.8.094 1.198-.308c.238-.242.418-.545.513-.89l.934-3.381a.475.475 0 0 0-.6-.58l-2.41.76a2.883 2.883 0 0 0-1.81 1.675l-.959 2.387a.374.374 0 0 0 .33.514Z"/><path fill="#F2B355" d="m18.099 1.316-1.414.445a.482.482 0 0 1-.018.135l-.934 3.381A2.039 2.039 0 0 1 14.3 6.703l1.4.068a2.039 2.039 0 0 0 2.065-1.494l.934-3.381a.475.475 0 0 0-.6-.58Z"/><path fill="#365E7D" d="m16.78 11.907.113.022a4.801 4.801 0 0 1 2.764 1.633l2.129 2.548a6.971 6.971 0 0 1 1.542 3.422l.493 3.238c.03.195.068.39.114.582h2.228a.27.27 0 0 0 .258-.354 6.945 6.945 0 0 1-.258-1.09l-.492-3.238a6.97 6.97 0 0 0-1.542-3.422l-2.13-2.548a4.801 4.801 0 0 0-2.763-1.633l-.113-.022a4.8 4.8 0 0 0-3.692.792c.446-.04.9-.018 1.349.07Z"/><path fill="#4A80AA" d="M21.077 13.297s.586-.584.615-.931a2.762 2.762 0 0 0-.31-1.519l-1.229-2.325a.338.338 0 0 0-.629.084l-.606 2.718a.821.821 0 0 0 .135.658l.997 1.39 1.027-.075Z"/><path fill="#407093" d="m21.382 10.848-1.229-2.326a.338.338 0 0 0-.629.084l-.222.995.69 1.307c.406.768.426 1.68.058 2.464l.419.584a.396.396 0 0 0 .676-.053l.264-.528c.4-.797.39-1.739-.027-2.527Z"/><path fill="#B3E59F" d="M21.89 27a3.185 3.185 0 1 0 .001-6.37 3.185 3.185 0 0 0 0 6.37Z"/><path fill="#95D6A4" d="M23.759 21.235a3.185 3.185 0 0 1-4.447 4.447 3.185 3.185 0 1 0 4.447-4.447Z"/><path fill="#F2FBFF" d="M21.533 25.013a.407.407 0 0 1-.288-.12l-.81-.81a.407.407 0 1 1 .575-.576l.523.523 1.336-1.336a.407.407 0 0 1 .576.576l-1.624 1.624a.407.407 0 0 1-.288.119Z"/><path fill="#A1A1AA" d="M12.781 22.416a.684.684 0 0 0-.656-.88.684.684 0 0 1-.661-.86l.043-.164a.684.684 0 0 0-.66-.86h-.092a.684.684 0 0 1-.669-.832l.049-.22a.684.684 0 0 0-.669-.833h-.953l-.754 2.506a7.822 7.822 0 0 0-.332 2.254v.553c0 .15.121.272.271.272h4.806l.277-.936Z"/><path fill="#4A80AA" d="m19.703 16.942 1.384.19a.407.407 0 0 0 .111-.806l-1.384-.19a3.782 3.782 0 0 0-2.236.374l-.854.437a.489.489 0 0 0 .04.886l.95.384a2.61 2.61 0 0 1 1.057.77l.473.577a.406.406 0 1 0 .63-.517l-.474-.576a3.422 3.422 0 0 0-.64-.602c.323.072.634.196.92.37l1.213.737a.405.405 0 0 0 .56-.137.407.407 0 0 0-.137-.559l-1.214-.737a3.85 3.85 0 0 0-1.555-.534 2.973 2.973 0 0 1 1.156-.067Z"/></g><defs><clipPath id="a"><path fill="#fff" d="M0 0h27v27H0z"/></clipPath></defs></svg>